<svg width="88" height="34" viewBox="0 0 88 34" fill="none" xmlns="http://www.w3.org/2000/svg">
<rect width="88" height="34" rx="10" fill="#0D0808"/>
<path fill-rule="evenodd" clip-rule="evenodd" d="M28.7372 6.53478C29.5293 5.74274 29.9253 5.34673 30.3819 5.19835C30.7836 5.06783 31.2163 5.06783 31.618 5.19835C32.0746 5.34673 32.4707 5.74274 33.2627 6.53478L33.687 6.95904L33.687 6.95905C34.479 7.75108 34.875 8.14709 35.0234 8.60375C35.1539 9.00544 35.1539 9.43813 35.0234 9.83982C34.875 10.2965 34.479 10.6925 33.687 11.4845L31.3019 13.8696L31.0214 12.7578H28.8061V16.3654L25.4845 19.687C24.6925 20.479 24.2965 20.875 23.8398 21.0234C23.4381 21.1539 23.0054 21.1539 22.6037 21.0234C22.1471 20.875 21.7511 20.479 20.959 19.687L20.5348 19.2627L20.5348 19.2627C19.7427 18.4707 19.3467 18.0746 19.1984 17.618C19.0678 17.2163 19.0678 16.7836 19.1984 16.3819C19.3467 15.9253 19.7427 15.5293 20.5348 14.7372L28.7372 6.53478ZM28.8284 22H28.8061V16.3654L31.3019 13.8696L31.8974 16.23L32.894 12.7578H35.1093V15.719L33.5059 17.3225L33.5478 14.9414L32.5347 18.2936L31.8752 18.9531H31.4531L30.3676 15.1128L30.4438 19.2641V20.3845L28.8284 22ZM38.7191 22.0088L33.2627 27.4651L33.2627 27.4652C32.4707 28.2572 32.0746 28.6532 31.618 28.8016C31.2163 28.9321 30.7836 28.9321 30.3819 28.8016C29.9253 28.6532 29.5293 28.2572 28.7372 27.4652L28.7372 27.4651L28.313 27.0409C27.5209 26.2488 27.1249 25.8528 26.9765 25.3962C26.846 24.9945 26.846 24.5618 26.9765 24.1601C27.1249 23.7034 27.5209 23.3074 28.313 22.5154L28.8284 22H30.4438V20.3845L31.8752 18.9531H32.3354L32.5347 18.2936L33.5059 17.3225L33.4716 19.2641V22H35.1093V15.719L36.5154 14.313C37.3074 13.5209 37.7034 13.1249 38.1601 12.9765C38.5618 12.846 38.9945 12.846 39.3962 12.9765C39.8528 13.1249 40.2488 13.5209 41.0409 14.313L41.4651 14.7372C42.2572 15.5293 42.6532 15.9253 42.8016 16.3819C42.9197 16.7456 42.9309 17.1347 42.8351 17.5032C42.8052 17.3717 42.769 17.2435 42.7265 17.1186C42.5826 16.6912 42.3732 16.3209 42.0981 16.0078C41.8188 15.6946 41.4781 15.4492 41.0761 15.2715C40.6741 15.0937 40.215 15.0049 39.6987 15.0049C39.1824 15.0049 38.7233 15.0937 38.3212 15.2715C37.9235 15.4492 37.587 15.6946 37.312 16.0078C37.0327 16.3209 36.8211 16.6912 36.6772 17.1186C36.5333 17.5418 36.4614 18.0031 36.4614 18.5024V18.6357C36.4614 19.1393 36.5333 19.6048 36.6772 20.0322C36.8211 20.4554 37.0327 20.8235 37.312 21.1367C37.587 21.4498 37.9256 21.6953 38.3276 21.873C38.4529 21.9265 38.5833 21.9718 38.7191 22.0088ZM40.0451 20.6828L38.7191 22.0088C39.0235 22.0918 39.3543 22.1333 39.7114 22.1333C40.2234 22.1333 40.6805 22.0465 41.0825 21.873C41.4845 21.6953 41.823 21.4498 42.0981 21.1367C42.3732 20.8235 42.5826 20.4554 42.7265 20.0322C42.8704 19.6048 42.9423 19.1393 42.9423 18.6357V18.5024C42.9423 18.1504 42.9066 17.8174 42.8351 17.5032C42.8251 17.5417 42.8139 17.58 42.8016 17.618C42.6532 18.0746 42.2572 18.4707 41.4651 19.2627L41.0156 19.7122C41.0441 19.6285 41.0685 19.5406 41.0888 19.4482C41.1438 19.1943 41.1713 18.9235 41.1713 18.6357V18.5024C41.1713 18.2231 41.1438 17.9586 41.0888 17.709C41.0338 17.4593 40.9492 17.2392 40.8349 17.0488C40.7164 16.8584 40.5641 16.7081 40.3779 16.5981C40.1917 16.4881 39.9653 16.4331 39.6987 16.4331C39.4363 16.4331 39.212 16.4881 39.0258 16.5981C38.8396 16.7081 38.6873 16.8584 38.5688 17.0488C38.4503 17.2392 38.3636 17.4593 38.3086 17.709C38.2535 17.9586 38.226 18.2231 38.226 18.5024V18.6357C38.226 18.9235 38.2535 19.1943 38.3086 19.4482C38.3636 19.6979 38.4503 19.9158 38.5688 20.102C38.6873 20.2925 38.8396 20.4427 39.0258 20.5527C39.2163 20.6627 39.4448 20.7178 39.7114 20.7178C39.8302 20.7178 39.9415 20.7061 40.0451 20.6828ZM40.0451 20.6828L41.0156 19.7122C40.9672 19.8547 40.9069 19.9847 40.8349 20.102C40.7164 20.2925 40.5641 20.4427 40.3779 20.5527C40.2774 20.6121 40.1665 20.6554 40.0451 20.6828ZM44.0722 15.1318L46.6938 22H48.3505L50.9594 15.1318H49.1186L47.6142 19.9751L47.519 20.4575L47.4238 19.9751L45.913 15.1318H44.0722ZM56.5263 15.1318H52.7876V16.5727H54.7426V20.5654H52.7876V22H58.3862V20.5654H56.5263V15.1318ZM54.6855 12.999C54.639 13.1133 54.6157 13.2381 54.6157 13.3735C54.6157 13.5089 54.639 13.6359 54.6855 13.7544C54.7363 13.8686 54.8061 13.966 54.895 14.0464C54.9838 14.131 55.0896 14.1966 55.2124 14.2431C55.3393 14.2897 55.479 14.313 55.6313 14.313C55.9445 14.313 56.192 14.2262 56.374 14.0527C56.5602 13.875 56.6533 13.6486 56.6533 13.3735C56.6533 13.0984 56.5602 12.8742 56.374 12.7007C56.192 12.5229 55.9445 12.4341 55.6313 12.4341C55.479 12.4341 55.3393 12.4573 55.2124 12.5039C55.0896 12.5504 54.9838 12.6139 54.895 12.6943C54.8061 12.7789 54.7363 12.8805 54.6855 12.999ZM62.017 21.8667C62.4487 22.0402 62.929 22.1269 63.458 22.1269C64.1224 22.1269 64.6979 21.9979 65.1845 21.7397C65.6712 21.4816 66.0267 21.1938 66.2509 20.8764L65.3686 19.9243C65.1655 20.1867 64.901 20.3834 64.5752 20.5146C64.2493 20.6458 63.9129 20.7114 63.5659 20.7114C63.3204 20.7114 63.094 20.6733 62.8867 20.5971C62.6793 20.521 62.4952 20.4131 62.3344 20.2734C62.1779 20.138 62.053 19.9878 61.9599 19.8227C61.8668 19.6535 61.7906 19.4313 61.7314 19.1562V19.1372H66.3906V18.3882C66.3906 17.8846 66.3208 17.4254 66.1811 17.0107C66.0415 16.5918 65.8383 16.2342 65.5717 15.938C65.3009 15.6417 64.9708 15.4132 64.5815 15.2524C64.1964 15.0874 63.7563 15.0049 63.2612 15.0049C62.783 15.0049 62.3408 15.0916 61.9345 15.2651C61.5283 15.4386 61.177 15.6819 60.8808 15.9951C60.5846 16.3082 60.354 16.6828 60.1889 17.1186C60.0239 17.5503 59.9414 18.0285 59.9414 18.5532V18.8071C59.9414 19.2684 60.0239 19.7021 60.1889 20.1084C60.3582 20.5104 60.5973 20.8595 60.9062 21.1557C61.2151 21.4562 61.5854 21.6932 62.017 21.8667ZM62.7026 16.541C62.8676 16.4691 63.0496 16.4331 63.2485 16.4331C63.4728 16.4331 63.6696 16.4691 63.8388 16.541C64.0123 16.6087 64.1583 16.7018 64.2768 16.8203C64.3953 16.943 64.4884 17.0869 64.5561 17.2519C64.6238 17.417 64.6577 17.5926 64.6577 17.7788V17.9184H61.7631C61.8055 17.6942 61.8689 17.491 61.9536 17.3091C62.0382 17.1271 62.144 16.9705 62.271 16.8393C62.3937 16.7081 62.5376 16.6087 62.7026 16.541Z" fill="white"/>
</svg>
